<svg xmlns="http://www.w3.org/2000/svg" width="1600" height="600" viewBox="0 0 1600 600">
  <defs>
    <linearGradient id="g" x1="0" x2="1">
      <stop offset="0" stop-color="#0f172a"/>
      <stop offset="1" stop-color="#0b84ff"/>
    </linearGradient>
    <filter id="f" x="-20%" y="-20%" width="140%" height="140%">
      <feGaussianBlur stdDeviation="20" result="b"/>
      <feBlend in="SourceGraphic" in2="b" mode="normal"/>
    </filter>
  </defs>
  <rect width="100%" height="100%" fill="url(#g)"/>
  <g transform="translate(80,80)" fill="rgba(255,255,255,0.06)">
    <rect x="0" y="0" width="520" height="420" rx="28"/>
    <rect x="180" y="60" width="520" height="340" rx="28"/>
    <rect x="420" y="120" width="520" height="260" rx="28"/>
  </g>
  <g transform="translate(120,48)">
    <text x="0" y="120" font-family="Inter, Roboto, Arial" font-size="64" fill="#ffffff" font-weight="700">Aegis</text>
    <text x="0" y="180" font-family="Inter, Roboto, Arial" font-size="20" fill="#e6f0ff" opacity="0.9">Local-first privacy scanning and content protection for mobile</text>
    <g transform="translate(0,220)">
      <rect x="0" y="0" width="220" height="56" rx="12" fill="#ffffff" opacity="0.12"/>
      <text x="36" y="36" font-family="Inter" font-size="16" fill="#fff">Get started</text>
      <rect x="260" y="0" width="220" height="56" rx="12" fill="#ffffff" opacity="0.06"/>
      <text x="296" y="36" font-family="Inter" font-size="16" fill="#fff">Docs</text>
    </g>
  </g>
  <g transform="translate(900,80)" filter="url(#f)">
    <circle cx="160" cy="120" r="140" fill="#00e7ff" opacity="0.08"/>
    <circle cx="320" cy="240" r="110" fill="#7b61ff" opacity="0.06"/>
    <path d="M80 360 C200 300, 360 300, 480 360" stroke="#ffffff" stroke-opacity="0.06" stroke-width="6" fill="none" stroke-linecap="round"/>
  </g>
  <g transform="translate(1080,220)">
    <rect x="-16" y="-16" width="240" height="160" rx="18" fill="#081029" stroke="#ffffff" stroke-opacity="0.04"/>
    <text x="20" y="46" font-family="Inter" font-size="22" fill="#fff">On-device scanner</text>
    <text x="20" y="84" font-family="Inter" font-size="14" fill="#cfe9ff" opacity="0.9">AES‑GCM • Argon2id • Rust FFI</text>
  </g>
</svg>